<svg xmlns="http://www.w3.org/2000/svg" viewBox="0 0 640 420" fill="none" role="img" aria-label="AI u1 Ñ Tt ‹">
  <rect width="640" height="420" rx="16" fill="#0b1220"/>
  <rect x="1" y="1" width="638" height="418" rx="15" stroke="#334155" stroke-opacity=".7"/>
  <text x="20" y="32" fill="#94a3b8" font-family="system-ui,sans-serif" font-size="11" font-weight="700">AI u1 Ñ</text>
  <text x="20" y="54" fill="#f8fafc" font-family="system-ui,sans-serif" font-size="16" font-weight="800">‡ ∑ »ƒ ∑ ROAS \–</text>

  <!-- KPI row -->
  <rect x="16" y="70" width="148" height="72" rx="10" fill="#111827" stroke="#1f2937"/>
  <text x="28" y="92" fill="#64748b" font-size="10" font-family="system-ui">tà Ï tu</text>
  <text x="28" y="118" fill="#f8fafc" font-size="20" font-weight="800" font-family="system-ui">©1.82µ</text>
  <rect x="172" y="70" width="148" height="72" rx="10" fill="#111827" stroke="#1f2937"/>
  <text x="184" y="92" fill="#64748b" font-size="10" font-family="system-ui">…‡ »ƒ(</text>
  <text x="184" y="118" fill="#34d399" font-size="20" font-weight="800" font-family="system-ui">31.8%</text>
  <rect x="328" y="70" width="148" height="72" rx="10" fill="#111827" stroke="#1f2937"/>
  <text x="340" y="92" fill="#64748b" font-size="10" font-family="system-ui">‡ ROAS</text>
  <text x="340" y="118" fill="#60a5fa" font-size="20" font-weight="800" font-family="system-ui">3.42x</text>
  <rect x="484" y="70" width="140" height="72" rx="10" fill="#111827" stroke="#1f2937"/>
  <text x="496" y="92" fill="#64748b" font-size="10" font-family="system-ui">AI  H</text>
  <text x="496" y="118" fill="#fbbf24" font-size="18" font-weight="800" font-family="system-ui">©420Ã</text>

  <!-- left chart card -->
  <rect x="16" y="156" width="392" height="248" rx="12" fill="#111827" stroke="#1f2937"/>
  <text x="32" y="182" fill="#f1f5f9" font-size="13" font-weight="700" font-family="system-ui">‡ ¿ú vs tu</text>
  <text x="250" y="182" fill="#64748b" font-size="10" font-family="system-ui">\¸ 30| ∑ Ã –</text>
  <circle cx="32" cy="200" r="4" fill="#ef4444" fill-opacity=".75"/>
  <text x="42" y="203" fill="#94a3b8" font-size="10" font-family="system-ui">‡ ¿ú</text>
  <circle cx="120" cy="200" r="4" fill="#10b981" fill-opacity=".75"/>
  <text x="130" y="203" fill="#94a3b8" font-size="10" font-family="system-ui">tu</text>
  <!-- bars -->
  <g>
    <rect x="48" y="280" width="22" height="90" rx="3" fill="#ef4444" fill-opacity=".55"/>
    <rect x="74" y="250" width="22" height="120" rx="3" fill="#10b981" fill-opacity=".55"/>
    <rect x="118" y="265" width="22" height="105" rx="3" fill="#ef4444" fill-opacity=".55"/>
    <rect x="144" y="230" width="22" height="140" rx="3" fill="#10b981" fill-opacity=".55"/>
    <rect x="188" y="275" width="22" height="95" rx="3" fill="#ef4444" fill-opacity=".55"/>
    <rect x="214" y="240" width="22" height="130" rx="3" fill="#10b981" fill-opacity=".55"/>
    <rect x="258" y="290" width="22" height="80" rx="3" fill="#ef4444" fill-opacity=".55"/>
    <rect x="284" y="220" width="22" height="150" rx="3" fill="#10b981" fill-opacity=".55"/>
    <rect x="328" y="270" width="22" height="100" rx="3" fill="#ef4444" fill-opacity=".55"/>
    <rect x="354" y="235" width="22" height="135" rx="3" fill="#10b981" fill-opacity=".55"/>
  </g>
  <line x1="40" y1="372" x2="390" y2="372" stroke="#334155"/>
  <text x="55" y="392" fill="#64748b" font-size="9" font-family="system-ui">W1</text>
  <text x="125" y="392" fill="#64748b" font-size="9" font-family="system-ui">W2</text>
  <text x="195" y="392" fill="#64748b" font-size="9" font-family="system-ui">W3</text>
  <text x="265" y="392" fill="#64748b" font-size="9" font-family="system-ui">W4</text>
  <text x="335" y="392" fill="#64748b" font-size="9" font-family="system-ui">W5</text>

  <!-- right margin card -->
  <rect x="420" y="156" width="204" height="248" rx="12" fill="#111827" stroke="#1f2937"/>
  <text x="436" y="182" fill="#f1f5f9" font-size="13" font-weight="700" font-family="system-ui">Dƒ »ƒ(</text>
  <text x="436" y="210" fill="#94a3b8" font-size="10" font-family="system-ui">Cafe24</text>
  <rect x="436" y="218" width="172" height="10" rx="5" fill="#1f2937"/>
  <rect x="436" y="218" width="132" height="10" rx="5" fill="#3b82f6"/>
  <text x="580" y="210" fill="#e2e8f0" font-size="10" font-weight="700" font-family="system-ui">38%</text>
  <text x="436" y="250" fill="#94a3b8" font-size="10" font-family="system-ui">§»∏§†¥</text>
  <rect x="436" y="258" width="172" height="10" rx="5" fill="#1f2937"/>
  <rect x="436" y="258" width="118" height="10" rx="5" fill="#10b981"/>
  <text x="580" y="250" fill="#e2e8f0" font-size="10" font-weight="700" font-family="system-ui">34%</text>
  <text x="436" y="290" fill="#94a3b8" font-size="10" font-family="system-ui">‡!</text>
  <rect x="436" y="298" width="172" height="10" rx="5" fill="#1f2937"/>
  <rect x="436" y="298" width="84" height="10" rx="5" fill="#f97316"/>
  <text x="580" y="290" fill="#fda4af" font-size="10" font-weight="700" font-family="system-ui">24%</text>
  <text x="436" y="330" fill="#94a3b8" font-size="10" font-family="system-ui">–t¨</text>
  <rect x="436" y="338" width="172" height="10" rx="5" fill="#1f2937"/>
  <rect x="436" y="338" width="110" height="10" rx="5" fill="#ec4899"/>
  <text x="580" y="330" fill="#e2e8f0" font-size="10" font-weight="700" font-family="system-ui">32%</text>
  <rect x="436" y="360" width="172" height="28" rx="8" fill="rgba(59,130,246,.12)" stroke="#3b82f6" stroke-opacity=".3"/>
  <text x="448" y="378" fill="#93c5fd" font-size="9" font-weight="700" font-family="system-ui">AI ∑ T¿ ∞ 15% ¨0Ñ</text>
</svg>
