<svg xmlns="http://www.w3.org/2000/svg" viewBox="0 0 800 450" fill="none">
  <rect width="800" height="450" fill="#030712"/>
  <rect x="0" y="0" width="148" height="450" fill="#0b1120"/>
  <rect x="12" y="16" width="124" height="28" rx="6" fill="#1f2937"/>
  <rect x="12" y="56" width="124" height="32" rx="8" fill="#3b82f6" fill-opacity="0.25" stroke="#3b82f6" stroke-opacity="0.4"/>
  <rect x="12" y="96" width="124" height="24" rx="6" fill="#111827"/>
  <rect x="12" y="128" width="124" height="24" rx="6" fill="#111827"/>
  <text x="168" y="38" fill="#9ca3af" font-family="system-ui,sans-serif" font-size="11">패션 · 멀티채널</text>
  <text x="168" y="68" fill="#f9fafb" font-family="system-ui,sans-serif" font-size="20" font-weight="700">통합 매출 대시보드</text>
  <rect x="168" y="84" width="140" height="72" rx="10" fill="#111827" stroke="#1f2937"/>
  <text x="182" y="108" fill="#6b7280" font-size="10" font-family="system-ui">오늘 매출</text>
  <text x="182" y="136" fill="#60a5fa" font-size="22" font-weight="700" font-family="system-ui">₩4,280만</text>
  <rect x="320" y="84" width="140" height="72" rx="10" fill="#111827" stroke="#1f2937"/>
  <text x="334" y="108" fill="#6b7280" font-size="10" font-family="system-ui">마진율</text>
  <text x="334" y="136" fill="#34d399" font-size="22" font-weight="700" font-family="system-ui">38.2%</text>
  <rect x="472" y="84" width="140" height="72" rx="10" fill="#111827" stroke="#1f2937"/>
  <text x="486" y="108" fill="#6b7280" font-size="10" font-family="system-ui">주문</text>
  <text x="486" y="136" fill="#f9fafb" font-size="22" font-weight="700" font-family="system-ui">186건</text>
  <rect x="168" y="172" width="612" height="250" rx="12" fill="#0b1120" stroke="#1f2937"/>
  <polyline points="200,360 260,310 320,330 380,250 440,270 500,200 560,220 620,160 720,190" stroke="#3b82f6" stroke-width="3" fill="none"/>
  <polyline points="200,380 320,350 440,300 560,280 720,240" stroke="#8b5cf6" stroke-width="2" fill="none" opacity="0.7"/>
</svg>